<?xml version="1.0" standalone="no"?><!DOCTYPE svg PUBLIC "-//W3C//DTD SVG 1.1//EN" "http://www.w3.org/Graphics/SVG/1.1/DTD/svg11.dtd"><svg t="1574039231081" class="icon" viewBox="0 0 1024 1024" version="1.1" xmlns="http://www.w3.org/2000/svg" p-id="891" xmlns:xlink="http://www.w3.org/1999/xlink" width="200" height="200"><defs><style type="text/css"></style></defs><path d="M802.474667 370.460444a28.444444 28.444444 0 0 1 0 56.888889H209.578667a28.444444 28.444444 0 0 1-20.593778-48.128l136.647111-142.904889a28.444444 28.444444 0 1 1 41.073778 39.367112L276.081778 370.460444h526.392889zM735.914667 625.777778H209.521778a28.444444 28.444444 0 0 1 0-56.888889h592.896a28.444444 28.444444 0 0 1 20.593778 48.128l-136.647112 142.848a28.444444 28.444444 0 0 1-41.073777-39.310222L735.914667 625.777778z" fill="#000000" p-id="892"></path></svg>