<?xml version="1.0" standalone="no"?><!DOCTYPE svg PUBLIC "-//W3C//DTD SVG 1.1//EN" "http://www.w3.org/Graphics/SVG/1.1/DTD/svg11.dtd"><svg t="1573652142020" class="icon" viewBox="0 0 1024 1024" version="1.1" xmlns="http://www.w3.org/2000/svg" p-id="1235" xmlns:xlink="http://www.w3.org/1999/xlink" width="200" height="200"><defs><style type="text/css"></style></defs><path d="M610 672.09a18.48 18.48 0 0 1-13.06-31.54L902.44 335a43.16 43.16 0 0 0 0-60.93L834 205.44a43.25 43.25 0 0 0-60.7-0.35l-299.83 293.8a18.48 18.48 0 1 1-25.86-26.39l299.86-293.8a80.27 80.27 0 0 1 112.74 0.66L928.66 248a80.16 80.16 0 0 1-0.1 113.14L623.05 666.67a18.42 18.42 0 0 1-13.05 5.42z" fill="#0897EA" p-id="1236"></path><path d="M414 868.09a18.52 18.52 0 0 1-7.87-1.76 17.24 17.24 0 0 1-6.84-4.2L77.44 540.3a18.47 18.47 0 0 1 0-26.12L235 356.39a18.47 18.47 0 0 1 26-0.13l165.37 162.4c0.1 0.08 0.18 0.18 0.26 0.26L584 679.94a18.47 18.47 0 0 1-0.18 25.95L427 862.68a18.42 18.42 0 0 1-13 5.41zM116.62 527.23L413.43 824l131.38-131.34L400.35 544.9 248.19 395.46z" fill="#FF4056" p-id="1237"></path></svg>