<?xml version="1.0" standalone="no"?><!DOCTYPE svg PUBLIC "-//W3C//DTD SVG 1.1//EN" "http://www.w3.org/Graphics/SVG/1.1/DTD/svg11.dtd"><svg t="1573652150392" class="icon" viewBox="0 0 1024 1024" version="1.1" xmlns="http://www.w3.org/2000/svg" p-id="1373" xmlns:xlink="http://www.w3.org/1999/xlink" width="200" height="200"><defs><style type="text/css"></style></defs><path d="M330.82 553.35a18.48 18.48 0 0 1-13.06-31.54l191.33-191.35a18.48 18.48 0 1 1 26.13 26.13L343.88 547.93a18.42 18.42 0 0 1-13.06 5.42zM494.06 708A18.48 18.48 0 0 1 481 676.43l191.35-191.34a18.48 18.48 0 0 1 26.13 26.13L507.12 702.56a18.42 18.42 0 0 1-13.06 5.44z" fill="#0897EA" p-id="1374"></path><path d="M306.09 894.2a18.42 18.42 0 0 1-13.09-5.42L135.21 731a18.47 18.47 0 0 1 0-26.13L328.06 512 178.77 362.69a80 80 0 0 1 0-113.22l70.71-70.71a80 80 0 0 1 113.22 0L512 328.06l192.85-192.84a18.47 18.47 0 0 1 26.13 0L888.79 293a18.47 18.47 0 0 1 0 26.13L682.87 525.06a18.48 18.48 0 0 1-26.13-26.13L849.6 306.08 717.91 174.41 525.07 367.25a18.47 18.47 0 0 1-26.13 0L336.57 204.89c-16.29-16.29-44.68-16.29-61 0L204.9 275.6a43.1 43.1 0 0 0 0 61l162.36 162.34a18.47 18.47 0 0 1 0 26.13L174.4 717.91l131.69 131.68 192.85-192.85a18.48 18.48 0 0 1 26.13 26.13L319.15 888.78a18.42 18.42 0 0 1-13.06 5.42z" fill="#0897EA" p-id="1375"></path><path d="M717.91 868.68a79.54 79.54 0 0 1-56.61-23.46L543.58 727.51a18.48 18.48 0 0 1 26.13-26.13L687.43 819.1c16.29 16.29 44.68 16.29 61 0l70.71-70.7a43.11 43.11 0 0 0 0-61L698.28 566.59a18.48 18.48 0 0 1 26.13-26.13L845.23 661.3a80.05 80.05 0 0 1 0 113.23l-70.71 70.7a79.54 79.54 0 0 1-56.61 23.45z" fill="#FF4056" p-id="1376"></path></svg>